Coordinates
version=1
nRows=4
nColumns=63
inDegrees=yes

Units are S.I. units (second, meters, Newtons, ...)
If the header above contains a line with 'inDegrees', this indicates whether rotational values are in degrees (yes) or radians (no).

endheader
time	pelvis_tilt	pelvis_list	pelvis_rotation	pelvis_tx	pelvis_ty	pelvis_tz	hip_flexion_r	hip_adduction_r	hip_rotation_r	knee_angle_r	knee_angle_r_beta	ankle_angle_r	subtalar_angle_r	mtp_angle_r	hip_flexion_l	hip_adduction_l	hip_rotation_l	knee_angle_l	knee_angle_l_beta	ankle_angle_l	subtalar_angle_l	mtp_angle_l	L5_S1_Flex_Ext	L5_S1_Lat_Bending	L5_S1_axial_rotation	L4_L5_Flex_Ext	L4_L5_Lat_Bending	L4_L5_axial_rotation	L3_L4_Flex_Ext	L3_L4_Lat_Bending	L3_L4_axial_rotation	L2_L3_Flex_Ext	L2_L3_Lat_Bending	L2_L3_axial_rotation	L1_L2_Flex_Ext	L1_L2_Lat_Bending	L1_L2_axial_rotation	L1_T12_Flex_Ext	L1_T12_Lat_Bending	L1_T12_axial_rotation	Abs_r3	Abs_r2	Abs_r1	Abs_t1	Abs_t2	neck_flexion	neck_bending	neck_rotation	arm_flex_r	arm_add_r	arm_rot_r	elbow_flex_r	pro_sup_r	wrist_flex_r	wrist_dev_r	arm_flex_l	arm_add_l	arm_rot_l	elbow_flex_l	pro_sup_l	wrist_flex_l	wrist_dev_l
      0.00000000	      1.75001691	     -2.41724304	    108.93519277	      0.05856285	      0.90406796	      0.55924927	      1.13787341	      4.69709525	     -7.79875818	      8.77631926	      0.15317567	     30.06464280	     -2.88364798	      0.00000000	      4.15432472	     -2.54727933	     -2.55211917	     10.85121691	      0.18938946	     38.53061346	     12.83139745	      0.00000000	      0.38871569	      0.42620248	     -2.18704722	      0.72188391	      0.56684930	     -2.32373767	      0.63862101	      1.03626871	     -2.32373767	      0.44426316	      1.03626871	     -1.91366632	      0.36096139	      0.86911210	     -1.77697587	      0.22211215	      0.66018764	     -1.64028542	      2.77655732	      4.82128771	    -12.16370053	      0.00000000	      0.00000000	     21.50486371	      5.64719176	     18.79900677	     26.51356580	    -13.48771820	     81.72549470	     60.12857423	     20.41620382	     -0.49229627	     -4.51079261	      8.95595433	    -17.54018164	     43.79971490	     66.00893298	     29.36203233	    -11.56514186	     19.28420188
      0.01754386	      1.37346729	     -2.02706699	    107.85037963	      0.05905409	      0.90514316	      0.55618456	      0.32133298	      4.41137439	     -7.64751183	      8.46080790	      0.14766896	     31.08810537	     -1.14733087	      0.00000000	      2.65615900	     -2.26902065	     -2.83330537	      9.34789691	      0.16315158	     37.91669331	     11.87635597	      0.00000000	      0.33250486	      0.43164620	     -2.05307782	      0.61749477	      0.57408944	     -2.18139518	      0.54627223	      1.04950456	     -2.18139518	      0.38001980	      1.04950456	     -1.79644309	      0.30876401	      0.88021292	     -1.66812573	      0.18999328	      0.66861996	     -1.53980837	      2.37504896	      4.88286810	    -11.41860292	      0.00000000	      0.00000000	     21.28524386	      5.57907466	     20.61550410	     25.43219531	    -13.33255794	     79.91227095	     59.91650088	     20.91915686	     -0.37188575	     -2.52238695	      9.79612670	    -17.98429635	     46.28083238	     65.46297790	     30.90029232	    -11.07792039	     18.95542735
      0.03508772	      1.04412492	     -1.90979021	    106.93434949	      0.05939133	      0.90562464	      0.55381729	      0.00604195	      3.94797221	     -8.58378330	      8.59956811	      0.15009078	     32.13344250	      1.72862539	      0.00000000	      1.72758967	     -1.92344403	     -3.16718272	      8.30058769	      0.14487259	     37.44698122	     11.03819876	      0.00000000	      0.32145165	      0.41659594	     -1.85223484	      0.59696787	      0.55407261	     -1.96799952	      0.52811292	      1.01291138	     -1.96799952	      0.36738710	      1.01291138	     -1.62070549	      0.29850001	      0.84952245	     -1.50494081	      0.18367747	      0.64530712	     -1.38917613	      2.29609702	      4.71261664	    -10.30157452	      0.00000000	      0.00000000	     21.49629673	      5.14567045	     20.51602015	     23.89667726	    -13.51472728	     76.91431869	     60.18775651	     21.76636442	     -0.49082754	      0.45186142	     10.81877039	    -18.27547567	     48.82094893	     64.42836492	     36.41166546	     -7.80218438	     18.71759323
      0.05263158	      0.74250520	     -1.84479299	    106.18379178	      0.05966488	      0.90580902	      0.55197531	     -0.16911200	      3.45320984	    -10.08789837	      8.89208659	      0.15519619	     33.04386286	      4.90406244	      0.00000000	      0.97793189	     -1.53786760	     -2.79470537	      7.36490031	      0.12854176	     36.85800884	      9.45549278	      0.00000000	      0.31664845	      0.40180913	     -1.76500134	      0.58804783	      0.53440614	     -1.87531392	      0.52022174	      0.97695871	     -1.87531392	      0.36189751	      0.97695871	     -1.54437617	      0.29403975	      0.81936917	     -1.43406359	      0.18093292	      0.62240234	     -1.32375100	      2.26178821	      4.54534521	     -9.81640793	      0.00000000	      0.00000000	     21.42993733	      5.25594888	     21.33221204	     23.38888871	    -13.49601245	     76.04363592	     60.28529786	     22.47392045	     -0.69665683	      2.01775578	     10.88547231	    -18.14339532	     47.92143582	     63.11279962	     52.43198226	      0.59011279	     20.25247779
